name D:\school\WTK\thesis\model\3dpredictsim\Results\batch_windlass\Pog_s1_tmt_bCst_d00_k1000_WL30_ig24_pas.mot
datacolumns 128
datarows 4
range 1.67171580 1.70515012
endheader
time	pelvis_tilt	pelvis_list	pelvis_rotation	pelvis_tx	pelvis_ty	pelvis_tz	hip_flexion_l	hip_adduction_l	hip_rotation_l	hip_flexion_r	hip_adduction_r	hip_rotation_r	knee_angle_l	knee_angle_r	ankle_angle_l	ankle_angle_r	subtalar_angle_l	subtalar_angle_r	tmt_angle_l	tmt_angle_r	mtp_angle_l	mtp_angle_r	lumbar_extension	lumbar_bending	lumbar_rotation	arm_flex_l	arm_add_l	arm_rot_l	arm_flex_r	arm_add_r	arm_rot_r	elbow_flex_l	elbow_flex_r	pro_sup_l	pro_sup_r	glut_med1_l/activation	glut_med2_l/activation	glut_med3_l/activation	glut_min1_l/activation	glut_min2_l/activation	glut_min3_l/activation	semimem_l/activation	semiten_l/activation	bifemlh_l/activation	bifemsh_l/activation	sar_l/activation	add_long_l/activation	add_brev_l/activation	add_mag1_l/activation	add_mag2_l/activation	add_mag3_l/activation	tfl_l/activation	pect_l/activation	grac_l/activation	glut_max1_l/activation	glut_max2_l/activation	glut_max3_l/activation	iliacus_l/activation	psoas_l/activation	quad_fem_l/activation	gem_l/activation	peri_l/activation	rect_fem_l/activation	vas_med_l/activation	vas_int_l/activation	vas_lat_l/activation	med_gas_l/activation	lat_gas_l/activation	soleus_l/activation	tib_post_l/activation	flex_dig_l/activation	flex_hal_l/activation	tib_ant_l/activation	per_brev_l/activation	per_long_l/activation	per_tert_l/activation	ext_dig_l/activation	ext_hal_l/activation	ercspn_l/activation	intobl_l/activation	extobl_l/activation	glut_med1_r/activation	glut_med2_r/activation	glut_med3_r/activation	glut_min1_r/activation	glut_min2_r/activation	glut_min3_r/activation	semimem_r/activation	semiten_r/activation	bifemlh_r/activation	bifemsh_r/activation	sar_r/activation	add_long_r/activation	add_brev_r/activation	add_mag1_r/activation	add_mag2_r/activation	add_mag3_r/activation	tfl_r/activation	pect_r/activation	grac_r/activation	glut_max1_r/activation	glut_max2_r/activation	glut_max3_r/activation	iliacus_r/activation	psoas_r/activation	quad_fem_r/activation	gem_r/activation	peri_r/activation	rect_fem_r/activation	vas_med_r/activation	vas_int_r/activation	vas_lat_r/activation	med_gas_r/activation	lat_gas_r/activation	soleus_r/activation	tib_post_r/activation	flex_dig_r/activation	flex_hal_r/activation	tib_ant_r/activation	per_brev_r/activation	per_long_r/activation	per_tert_r/activation	ext_dig_r/activation	ext_hal_r/activation	ercspn_r/activation	intobl_r/activation	extobl_r/activation	
          1.67171580	         -2.92651597	          2.04327633	         -6.16447410	          2.08964475	          0.85823774	          0.00307069	         31.44281020	          2.72881407	         -3.31749301	        -17.66497871	         -1.77786967	          7.72231074	        -15.22237012	         -9.62533490	          6.65873968	          1.35127699	         -0.98285888	         13.52281712	         -0.67443851	         -8.53132578	          1.91610843	         27.83437818	         -1.51324556	         -0.57982687	          2.11440653	        -11.10506615	        -13.55932218	          6.09769530	          6.38133538	        -13.47000764	         16.83717586	         16.57939163	         39.86865590	         86.51662706	         86.51662706	          0.05928729	          0.05928682	          0.05000684	          0.05928662	          0.05928619	          0.05928489	          0.05928765	          0.05928720	          0.25184188	          0.05000035	          0.05000052	          0.11720167	          0.25468944	          0.12134147	          0.17366363	          0.11821991	          0.05000114	          0.05015866	          0.09688939	          0.05004054	          0.12958208	          0.12142423	          0.05465561	          0.05199436	          0.28218133	          0.06506064	          0.07665497	          0.05000021	          0.13964691	          0.14346521	          0.11963276	          0.05928729	          0.05928727	          0.05928730	          0.05000016	          0.05000109	          0.05002422	          0.56470078	          0.35540809	          0.20018874	          0.26608259	          0.60433910	          0.31668222	          0.05076047	          0.09089806	          0.09753006	          0.24627175	          0.08518628	          0.05000005	          0.27216283	          0.18358982	          0.09080941	          0.05000213	          0.05000033	          0.05000024	          0.06746479	          0.08215943	          0.16210636	          0.08624944	          0.05000265	          0.05000259	          0.05000098	          0.27688644	          0.08803795	          0.05000123	          0.05000218	          0.05000143	          0.05000081	          0.33201234	          0.55979057	          0.05000016	          0.05000045	          0.05000013	          0.26715946	          0.11961861	          0.05001070	          0.07592063	          0.26070406	          0.33901125	          0.21715131	          0.20323377	          0.20194947	          0.26620640	          0.05000002	          0.13288931	          0.18219203	          0.05000019	          0.05000005	          0.05000016	          0.05000003	          0.05000011	          0.05000031	
          1.68286057	         -2.91730073	          2.13714480	         -6.37269516	          2.10699939	          0.85744292	          0.00283687	         30.71443925	          3.17048936	         -3.11567129	        -17.37717045	         -2.05708245	          7.53486601	        -15.13728152	        -11.79134801	          6.25632272	          0.18652936	         -1.42779362	         14.42168434	         -0.80091061	         -9.02480548	          2.27840543	         28.65875063	         -1.27665996	         -0.83594576	          2.20209335	        -12.24229672	        -13.54143521	          5.91833737	          6.06248909	        -13.49459923	         17.06718346	         16.49347291	         40.97587313	         86.51662706	         86.51662706	          0.05000003	          0.05000010	          0.10188624	          0.05000007	          0.05000007	          0.05000014	          0.05000033	          0.05000020	          0.21239115	          0.05000040	          0.05001381	          0.09884248	          0.24579001	          0.40994153	          0.27472927	          0.09970168	          0.05000020	          0.05000721	          0.10807213	          0.05928715	          0.14413348	          0.15260722	          0.05000010	          0.05000101	          0.58816690	          0.13896323	          0.10695801	          0.07029970	          0.22664724	          0.23622336	          0.19609727	          0.05000001	          0.05000002	          0.05000000	          0.05000026	          0.06263041	          0.05000047	          0.66811924	          0.29973447	          0.22533917	          0.52911954	          0.64693695	          0.35835422	          0.05000000	          0.07665896	          0.08225206	          0.20769354	          0.07184197	          0.05258600	          0.22952886	          0.15483071	          0.07658430	          0.05000431	          0.05000027	          0.05000037	          0.05689653	          0.06928939	          0.22050475	          0.25506863	          0.23399720	          0.07127031	          0.11086243	          0.23351276	          0.07424970	          0.05000088	          0.05000551	          0.05000424	          0.05005082	          0.28000291	          0.49939894	          0.05000170	          0.06664574	          0.05928806	          0.22530921	          0.11719299	          0.14335951	          0.11302186	          0.21986498	          0.28590542	          0.18313473	          0.17139742	          0.17031443	          0.22450550	          0.09808111	          0.11207240	          0.15365188	          0.05000019	          0.12123560	          0.05000069	          0.05980869	          0.07029974	          0.05761868	
          1.69400534	         -2.90357344	          2.24205033	         -6.55007534	          2.12453493	          0.85643748	          0.00263213	         29.83692812	          3.53880820	         -2.82892094	        -16.99372884	         -2.32182573	          7.33441520	        -15.49626886	        -14.14961506	          5.95911061	         -1.00057262	         -1.89467449	         15.23513799	         -0.99088898	         -9.28826996	          2.57035358	         28.77148818	         -1.02842790	         -1.11041509	          2.27532710	        -13.33780590	        -13.53829556	          5.85550188	          5.67070714	        -13.51686490	         17.20780265	         16.34499963	         42.06598550	         86.51662706	         86.51662706	          0.32221868	          0.30000344	          0.33707027	          0.24146245	          0.05001519	          0.26125318	          0.09744656	          0.10597471	          0.19052209	          0.05000010	          0.05000051	          0.08335914	          0.23863095	          0.34572468	          0.23822135	          0.16439737	          0.05000034	          0.07030091	          0.12426867	          0.05000017	          0.17590897	          0.14499516	          0.05221901	          0.05000037	          0.49603106	          0.11719487	          0.23824662	          0.05928732	          0.19114333	          0.19921979	          0.16537897	          0.05928731	          0.05928732	          0.05928731	          0.05775783	          0.05928736	          0.05928748	          0.56345917	          0.41462993	          0.19004069	          0.44623362	          0.63888611	          0.30221856	          0.05363531	          0.06465600	          0.06936735	          0.24814297	          0.06058803	          0.05000028	          0.19357354	          0.13057672	          0.06458753	          0.05000219	          0.05000100	          0.05000331	          0.05000008	          0.05843550	          0.18596319	          0.28919348	          0.19734197	          0.06010762	          0.09349630	          0.25180782	          0.08330755	          0.05173382	          0.05002489	          0.05011808	          0.05928708	          0.23614073	          0.45409031	          0.05928714	          0.05620623	          0.05000070	          0.19001472	          0.09883484	          0.12090240	          0.09531711	          0.18542331	          0.24111858	          0.15444682	          0.14454820	          0.14363496	          0.18933702	          0.20248501	          0.16492148	          0.18128676	          0.25114344	          0.22785808	          0.14286133	          0.07836876	          0.05928735	          0.05000011	
          1.70515012	         -2.88742895	          2.34737787	         -6.69524775	          2.14201263	          0.85523416	          0.00241633	         28.84309313	          3.86892288	         -2.52118065	        -16.48213137	         -2.56204240	          7.13771126	        -15.82711971	        -16.74976197	          5.75156970	         -2.09609918	         -2.37969946	         15.94029096	         -1.06231865	         -9.09257183	          2.87859355	         27.66090968	         -0.79103726	         -1.38602760	          2.33615428	        -14.34233223	        -13.54520227	          5.92278523	          5.24941829	        -13.54458666	         17.28364050	         16.11151473	         43.11746580	         86.51662706	         86.51662706	          0.41675302	          0.45219900	          0.49534986	          0.28545903	          0.27510667	          0.36128704	          0.08218211	          0.12798248	          0.16067699	          0.07307677	          0.05000080	          0.07030104	          0.20124965	          0.29156741	          0.25274414	          0.18565448	          0.05000024	          0.05928881	          0.13515263	          0.27790394	          0.23092849	          0.18803567	          0.05000011	          0.05000012	          0.41832824	          0.09883657	          0.24770937	          0.05000004	          0.16120118	          0.23708767	          0.13947340	          0.05000001	          0.05000003	          0.05000000	          0.05000000	          0.05000026	          0.05000022	          0.73556048	          0.34967914	          0.16787456	          0.68228840	          0.72020297	          0.52772771	          0.08165397	          0.07029989	          0.05850103	          0.20927170	          0.05109704	          0.05000008	          0.18511880	          0.11012219	          0.05447013	          0.05005481	          0.05000048	          0.05000035	          0.05000303	          0.05932658	          0.17602762	          0.24389167	          0.16642865	          0.05069208	          0.07885034	          0.28752269	          0.07025831	          0.05000172	          0.05000126	          0.05000067	          0.05000037	          0.19914961	          0.42473125	          0.05000013	          0.05000049	          0.05000021	          0.16024909	          0.08335248	          0.10196316	          0.08038579	          0.15637690	          0.20334757	          0.13025286	          0.12190520	          0.12113492	          0.15967800	          0.21196195	          0.14574575	          0.15289065	          0.21990671	          0.24350023	          0.12048240	          0.10978183	          0.05000004	          0.05000005	
